<svg version="1.0" xmlns="http://www.w3.org/2000/svg"
 width="132.000000pt" height="132.000000pt" viewBox="0 0 132.000000 132.000000"
 preserveAspectRatio="xMidYMid meet">
<g transform="translate(0.000000,132.000000) scale(0.100000,-0.100000)"
fill="#143C3C" stroke="none">
<path d="M388 1074 c-107 -34 -165 -76 -199 -144 -60 -116 -112 -312 -125
-467 l-6 -78 45 -42 c66 -61 157 -102 265 -118 37 -6 45 -4 62 17 11 12 19 26
20 30 0 4 -23 19 -52 33 -56 28 -137 85 -159 111 -7 9 16 0 52 -20 92 -50 163
-73 274 -86 163 -20 317 8 454 81 41 22 68 33 61 24 -22 -26 -131 -101 -172
-118 -43 -18 -45 -23 -18 -55 17 -21 25 -23 67 -16 107 16 212 65 273 128 l34
36 -12 103 c-19 171 -79 375 -138 469 -35 55 -146 113 -256 133 -62 12 -48
-18 19 -40 56 -19 164 -82 177 -104 4 -5 -24 4 -60 20 -110 50 -202 69 -334
69 -132 0 -224 -19 -334 -69 -36 -16 -64 -25 -60 -20 13 22 121 85 177 104 31
10 57 25 57 32 0 18 -24 16 -112 -13z m127 -368 c85 -36 85 -166 -1 -202 -31
-13 -39 -13 -69 1 -78 38 -79 167 0 201 37 16 30 16 70 0z m353 3 c40 -14 65
-54 65 -104 0 -80 -62 -128 -128 -101 -35 15 -65 59 -65 96 0 56 31 94 96 120
1 0 15 -5 32 -11z"/>
</g>
</svg>
