<svg version="1.0" xmlns="http://www.w3.org/2000/svg"
 width="188.000000pt" height="188.000000pt" viewBox="0 0 188.000000 188.000000"
 preserveAspectRatio="xMidYMid meet">
<g transform="translate(0.000000,188.000000) scale(0.100000,-0.100000)"
fill="#143C3C" stroke="none">
<path d="M759 1387 c-39 -30 -49 -79 -25 -126 19 -36 55 -51 121 -51 l55 0 0
70 c0 62 -3 74 -25 95 -18 19 -35 25 -67 25 -24 0 -50 -6 -59 -13z"/>
<path d="M995 1375 c-25 -24 -25 -27 -25 -188 0 -164 0 -164 26 -191 38 -38
95 -36 135 3 l29 29 0 152 c0 192 -12 219 -98 220 -32 0 -49 -6 -67 -25z"/>
<path d="M525 1148 c-33 -19 -44 -41 -45 -86 0 -32 6 -49 25 -67 24 -25 27
-25 188 -25 164 0 164 0 191 26 38 38 36 95 -3 135 l-29 29 -154 0 c-96 0
-160 -5 -173 -12z"/>
<path d="M1261 1146 c-35 -20 -50 -54 -51 -118 l0 -58 70 0 c62 0 74 3 95 25
19 18 25 35 25 67 -1 46 -12 68 -47 86 -28 15 -62 15 -92 -2z"/>
<path d="M505 885 c-19 -18 -25 -35 -25 -67 1 -79 63 -119 135 -86 37 17 55
57 55 123 l0 55 -70 0 c-62 0 -74 -3 -95 -25z"/>
<path d="M749 881 l-29 -29 0 -152 c0 -192 12 -219 98 -220 32 0 49 6 67 25
25 24 25 27 25 188 0 164 0 164 -26 191 -38 38 -95 36 -135 -3z"/>
<path d="M996 884 c-38 -38 -36 -95 3 -135 l29 -29 152 0 c192 0 219 12 220
98 0 32 -6 49 -25 67 -24 25 -27 25 -188 25 -164 0 -164 0 -191 -26z"/>
<path d="M970 600 c0 -62 3 -74 25 -95 18 -19 35 -25 67 -25 79 1 119 63 86
135 -17 37 -57 55 -123 55 l-55 0 0 -70z"/>
</g>
</svg>
